<svg xmlns="http://www.w3.org/2000/svg" version="1.1" xmlns:xlink="http://www.w3.org/1999/xlink" xmlns:svgjs="http://svgjs.dev/svgjs" width="2000" height="348" viewBox="0 0 2000 348"><g transform="matrix(1,0,0,1,-1.2121212121212466,-0.0459605403987382)"><svg viewBox="0 0 396 69" data-background-color="#ffffff" preserveAspectRatio="xMidYMid meet" height="348" width="2000" xmlns="http://www.w3.org/2000/svg" xmlns:xlink="http://www.w3.org/1999/xlink"><g id="tight-bounds" transform="matrix(1,0,0,1,0.2400000000000091,0.009112865768713618)"><svg viewBox="0 0 395.52 68.9817742684626" height="68.9817742684626" width="395.52"><g><svg viewBox="0 0 395.52 68.9817742684626" height="68.9817742684626" width="395.52"><g><svg viewBox="0 0 395.52 68.9817742684626" height="68.9817742684626" width="395.52"><g id="textblocktransform"><svg viewBox="0 0 395.52 68.9817742684626" height="68.9817742684626" width="395.52" id="textblock"><g><svg viewBox="0 0 395.52 68.9817742684626" height="68.9817742684626" width="395.52"><g transform="matrix(1,0,0,1,0,0)"><svg width="395.52" viewBox="0.85 -37.15 215.28 37.55" height="68.9817742684626" data-palette-color="#040046"><path d="M12.1 0L4.8 0 4.8-19.75 0.85-19.75 0.85-25.5 4.8-25.5 4.8-32.9 12.1-32.9 12.1-25.5 16.95-25.5 16.95-19.75 12.1-19.75 12.1 0ZM40.25-12.7L40.25-10.75 26.8-10.75Q26.8-8.05 27.1-7.03 27.4-6 28.52-5.65 29.65-5.3 32.5-5.3L32.5-5.3Q34.65-5.3 39.45-5.7L39.45-5.7 39.45-0.4Q37.95-0.05 35.52 0.18 33.1 0.4 30.8 0.4L30.8 0.4Q25.65 0.4 23.27-0.9 20.9-2.2 20.25-4.8 19.6-7.4 19.6-12.7L19.6-12.7Q19.6-17.9 20.25-20.55 20.9-23.2 23.15-24.55 25.4-25.9 30.25-25.9L30.25-25.9Q35.05-25.9 37.15-24.63 39.25-23.35 39.75-20.8 40.25-18.25 40.25-12.7L40.25-12.7ZM30.15-20.35Q28.6-20.35 27.92-20 27.25-19.65 27.02-18.57 26.8-17.5 26.8-15L26.8-15 33.4-15Q33.4-17.55 33.15-18.63 32.9-19.7 32.25-20.03 31.6-20.35 30.15-20.35L30.15-20.35ZM50.5 0.4Q47.05 0.4 45.47-1.43 43.9-3.25 43.9-7.3L43.9-7.3Q43.9-10.25 44.55-11.95 45.2-13.65 46.77-14.4 48.34-15.15 51.25-15.15L51.25-15.15Q53.4-15.15 57.3-14.95L57.3-14.95 57.3-16Q57.3-18.05 56.92-18.88 56.55-19.7 55.5-19.93 54.45-20.15 51.84-20.15L51.84-20.15Q48.3-20.15 45.3-19.8L45.3-19.8 45.3-25.1Q49.55-25.9 54.15-25.9L54.15-25.9Q58.65-25.9 60.87-24.85 63.09-23.8 63.82-21.68 64.55-19.55 64.55-15.5L64.55-15.5 64.55 0 57.65 0 57.45-3 57.05-3Q56.05-1.05 54.37-0.33 52.7 0.4 50.5 0.4L50.5 0.4ZM53.84-5.25Q55-5.25 55.67-5.5 56.34-5.75 56.75-6.4L56.75-6.4Q57.3-7.4 57.3-9.8L57.3-9.8 57.3-10.9 53.45-10.9Q52.3-10.9 51.77-10.7 51.25-10.5 51.05-9.88 50.84-9.25 50.84-7.95L50.84-7.95Q50.84-6.8 51.05-6.25 51.25-5.7 51.87-5.48 52.5-5.25 53.84-5.25L53.84-5.25ZM95.99 0L95.99-13.65Q95.99-16.65 95.82-17.85 95.64-19.05 95.09-19.38 94.54-19.7 93.19-19.7L93.19-19.7Q91.79-19.7 91.17-19.2 90.54-18.7 90.37-17.4 90.19-16.1 90.19-13.2L90.19-13.2 90.19 0 82.99 0 82.99-13.65Q82.99-16.65 82.82-17.85 82.64-19.05 82.09-19.38 81.54-19.7 80.19-19.7L80.19-19.7Q78.79-19.7 78.17-19.18 77.54-18.65 77.37-17.38 77.19-16.1 77.19-13.2L77.19-13.2 77.19 0 69.94 0 69.94-25.5 76.84-25.5 77.04-22.45 77.39-22.45Q78.29-24.3 79.89-25.1 81.49-25.9 83.79-25.9L83.79-25.9Q86.39-25.9 87.79-25.08 89.19-24.25 89.74-22.45L89.74-22.45 90.19-22.45Q91.89-25.9 96.64-25.9L96.64-25.9Q99.34-25.9 100.77-24.88 102.19-23.85 102.72-21.85 103.24-19.85 103.24-16.45L103.24-16.45 103.24 0 95.99 0ZM142.79 0L132.59 0 128.19-22.55 127.89-22.55 123.49 0 113.29 0 106.79-34.4 114.59-34.4 118.74-8.65 119.04-8.65 123.94-34.4 132.39-34.4 137.39-8.65 137.69-8.65 141.59-34.4 149.34-34.4 142.79 0ZM160.69 0.4Q155.64 0.4 153.41-0.7 151.19-1.8 150.59-4.38 149.99-6.95 149.99-12.75L149.99-12.75Q149.99-18.55 150.59-21.13 151.19-23.7 153.41-24.8 155.64-25.9 160.69-25.9L160.69-25.9Q165.74-25.9 167.94-24.8 170.14-23.7 170.76-21.13 171.39-18.55 171.39-12.75L171.39-12.75Q171.39-7 170.76-4.42 170.14-1.85 167.94-0.73 165.74 0.4 160.69 0.4L160.69 0.4ZM160.69-5.35Q162.49-5.35 163.14-5.8 163.79-6.25 163.96-7.6 164.14-8.95 164.14-12.75L164.14-12.75Q164.14-16.55 163.96-17.93 163.79-19.3 163.14-19.73 162.49-20.15 160.69-20.15L160.69-20.15Q158.89-20.15 158.21-19.73 157.54-19.3 157.39-17.95 157.24-16.6 157.24-12.75L157.24-12.75Q157.24-8.9 157.39-7.58 157.54-6.25 158.21-5.8 158.89-5.35 160.69-5.35L160.69-5.35ZM176.03 0L176.03-25.5 182.94-25.5 183.14-21.2 183.53-21.2Q184.44-23.85 186.09-24.88 187.74-25.9 190.53-25.9L190.53-25.9 190.53-18.9Q187.78-18.9 186.24-18.15 184.69-17.4 183.99-15.6 183.28-13.8 183.28-10.55L183.28-10.55 183.28 0 176.03 0ZM216.13 0L208.23 0 202.93-9.85 201.43-9.85 201.43 0 194.18 0 194.18-37.15 201.43-37.15 201.43-15.55 202.93-15.55 208.43-25.5 216.03-25.5 208.88-13.3 216.13 0Z" opacity="1" transform="matrix(1,0,0,1,0,0)" fill="#040046" class="wordmark-text-0" data-fill-palette-color="primary" id="text-0"></path></svg></g></svg></g></svg></g></svg></g></svg></g><defs></defs></svg><rect width="395.52" height="68.9817742684626" fill="none" stroke="none" visibility="hidden"></rect></g></svg></g></svg>